<svg width="66" height="60" viewBox="0 0 66 60" fill="none" xmlns="http://www.w3.org/2000/svg">
<path d="M32.672 0H32.5236C14.5613 0 0 13.4009 0 29.9317V30.0683C0 46.5991 14.5613 60 32.5236 60H32.672C50.6343 60 65.1956 46.5991 65.1956 30.0683V29.9317C65.1956 13.4009 50.6343 0 32.672 0Z" fill="white"/>
<path d="M42.6856 12.2065H22.5123C16.939 12.2065 12.405 16.3792 12.405 21.5083V38.4932C12.405 43.6223 16.939 47.7949 22.5123 47.7949H42.6856C48.2589 47.7949 52.7928 43.6223 52.7928 38.4932V21.5083C52.7928 16.3792 48.2589 12.2065 42.6856 12.2065ZM15.9705 21.5083C15.9705 18.1891 18.9056 15.4879 22.5123 15.4879H42.6856C46.2922 15.4879 49.2273 18.1891 49.2273 21.5083V38.4932C49.2273 41.8124 46.2922 44.5136 42.6856 44.5136H22.5123C18.9056 44.5136 15.9705 41.8124 15.9705 38.4932V21.5083Z" fill="#003060"/>
<path d="M32.5997 38.6511C37.7824 38.6511 42.0011 34.7706 42.0011 29.9989C42.0011 25.2271 37.7846 21.3467 32.5997 21.3467C27.4147 21.3467 23.1982 25.2271 23.1982 29.9989C23.1982 34.7706 27.4147 38.6511 32.5997 38.6511ZM32.5997 24.6301C35.818 24.6301 38.4356 27.0391 38.4356 30.001C38.4356 32.9628 35.818 35.3718 32.5997 35.3718C29.3814 35.3718 26.7638 32.9628 26.7638 30.001C26.7638 27.0391 29.3814 24.6301 32.5997 24.6301Z" fill="#003060"/>
<path d="M42.87 22.7445C44.2656 22.7445 45.4031 21.6997 45.4031 20.4133C45.4031 19.1268 44.2679 18.082 42.87 18.082C41.4721 18.082 40.3369 19.1268 40.3369 20.4133C40.3369 21.6997 41.4721 22.7445 42.87 22.7445Z" fill="#003060"/>
</svg>
