<svg width="66" height="60" viewBox="0 0 66 60" fill="none" xmlns="http://www.w3.org/2000/svg">
<path d="M33.4675 0H33.319C15.3567 0 0.79541 13.4009 0.79541 29.9317V30.0683C0.79541 46.5991 15.3567 60 33.319 60H33.4675C51.4297 60 65.9911 46.5991 65.9911 30.0683V29.9317C65.9911 13.4009 51.4297 0 33.4675 0Z" fill="white"/>
<path d="M16.3438 19.9424C15.485 19.2088 15.0579 18.3007 15.0579 17.2202C15.0579 16.1398 15.4872 15.1917 16.3438 14.456C17.2026 13.7224 18.3081 13.3545 19.6626 13.3545C21.0171 13.3545 22.0792 13.7224 22.9358 14.456C23.7946 15.1896 24.2217 16.1124 24.2217 17.2202C24.2217 18.328 23.7923 19.2088 22.9358 19.9424C22.077 20.6761 20.9874 21.0439 19.6626 21.0439C18.3378 21.0439 17.2026 20.6761 16.3438 19.9424ZM23.5 24.1508V46.6432H15.7773V24.1508H23.5Z" fill="#003060"/>
<path d="M49.2078 26.3731C50.8912 28.0548 51.7317 30.3629 51.7317 33.3016V46.2463H44.3975V34.2139C44.3975 32.7319 43.9795 31.58 43.1458 30.7602C42.3121 29.9403 41.1883 29.5283 39.7813 29.5283C38.3743 29.5283 37.2504 29.9382 36.4167 30.7602C35.583 31.58 35.165 32.7319 35.165 34.2139V46.2463H27.7874V24.0881H35.165V27.0268C35.9119 26.0473 36.9193 25.2737 38.1847 24.704C39.4501 24.1344 40.8731 23.8506 42.456 23.8506C45.2746 23.8506 47.5267 24.6914 49.2078 26.371V26.3731Z" fill="#003060"/>
</svg>
