<svg width="66" height="60" viewBox="0 0 66 60" fill="none" xmlns="http://www.w3.org/2000/svg">
<path d="M32.8674 0H32.7189C14.7566 0 0.195312 13.4009 0.195312 29.9317V30.0683C0.195312 46.5991 14.7566 60 32.7189 60H32.8674C50.8296 60 65.391 46.5991 65.391 30.0683V29.9317C65.391 13.4009 50.8296 0 32.8674 0Z" fill="white"/>
<path d="M48.5514 21.7061V27.3712C47.4756 27.2745 46.0777 27.0496 44.5313 26.5283C42.5122 25.8472 41.0092 24.916 40.0248 24.195V35.6451L39.9996 35.6093C40.0156 35.8363 40.0248 36.0676 40.0248 36.3009C40.0248 41.9871 34.9974 46.6159 28.8166 46.6159C22.6357 46.6159 17.6084 41.9871 17.6084 36.3009C17.6084 30.6147 22.6357 25.9838 28.8166 25.9838C29.4219 25.9838 30.0157 26.028 30.5959 26.1142V31.6973C30.0386 31.5144 29.4401 31.4156 28.8166 31.4156C25.8906 31.4156 23.5083 33.606 23.5083 36.3009C23.5083 38.9958 25.8906 41.1862 28.8166 41.1862C31.7425 41.1862 34.1249 38.9937 34.1249 36.3009C34.1249 36.2 34.1226 36.0991 34.1157 35.9982V13.7476H40.2669C40.2897 14.2268 40.3103 14.7103 40.3331 15.1896C40.3742 16.1334 40.7397 17.0394 41.3769 17.7815C42.1239 18.6538 43.2271 19.667 44.7757 20.4764C46.2261 21.231 47.5875 21.5568 48.5514 21.7103V21.7061Z" fill="#003060"/>
</svg>
