<svg width="66" height="60" viewBox="0 0 66 60" fill="none" xmlns="http://www.w3.org/2000/svg">
<path d="M65.584 30.001C65.584 45.1529 53.3799 57.6793 37.5258 59.712C36.0434 59.9012 34.5268 60 32.9873 60C31.2102 60 29.4652 59.8697 27.7658 59.6174C12.2452 57.3177 0.390625 44.9322 0.390625 30.001C0.390625 13.4324 14.9861 0 32.9896 0C50.993 0 65.5885 13.4324 65.5885 30.001H65.584Z" fill="white"/>
<path d="M13.6112 13.2324L28.6453 31.7308L13.5176 46.7713H16.9232L30.1688 33.6038L40.8699 46.7713H52.4572L36.578 27.2323L50.6596 13.2324H47.254L35.0568 25.3594L25.2009 13.2324H13.6135H13.6112ZM18.618 15.5405H23.94L47.4459 44.4632H42.1239L18.618 15.5405Z" fill="#003060"/>
</svg>
