<svg width="66" height="60" viewBox="0 0 66 60" fill="none" xmlns="http://www.w3.org/2000/svg">
<path d="M65.7953 29.9149C65.7953 13.3933 51.2422 0 33.29 0C15.3378 0 0.784668 13.3933 0.784668 29.9149C0.784668 46.4364 15.3378 59.8297 33.29 59.8297C51.2422 59.8297 65.7953 46.4364 65.7953 29.9149Z" fill="white"/>
<path d="M53.7579 23.7158C53.5021 21.4434 52.9517 18.9314 50.9257 17.6113C49.3565 16.5876 47.2939 16.5497 45.3684 16.5518C41.2981 16.5518 37.2255 16.5581 33.1552 16.5602C29.2402 16.5644 25.3252 16.5665 21.4102 16.5708C19.7748 16.5708 18.1851 16.4551 16.6661 17.1068C15.3619 17.6659 14.3409 18.7296 13.7265 19.9131C12.8745 21.559 12.6963 23.4236 12.5935 25.244C12.404 28.559 12.4245 31.8824 12.6506 35.1953C12.8174 37.6127 13.2399 40.2844 15.2705 41.8253C17.0704 43.1895 19.6103 43.2568 21.9447 43.2589C29.3544 43.2652 36.7664 43.2715 44.1784 43.2757C45.1286 43.2778 46.1199 43.261 47.0883 43.1643C48.9933 42.9751 50.8091 42.4727 52.0334 41.1736C53.2691 39.864 53.5867 38.0415 53.7739 36.3157C54.2308 32.1283 54.2262 27.901 53.7579 23.7158ZM28.8702 35.7839V24.0437L39.9162 29.9127L28.8702 35.7839Z" fill="#003060"/>
</svg>
